<?xml version="1.0" standalone="no"?>
<!DOCTYPE svg PUBLIC "-//W3C//DTD SVG 20010904//EN"
 "http://www.w3.org/TR/2001/REC-SVG-20010904/DTD/svg10.dtd">
<svg version="1.0" xmlns="http://www.w3.org/2000/svg"
 width="32.000000pt" height="32.000000pt" viewBox="0 0 32.000000 32.000000"
 preserveAspectRatio="xMidYMid meet">

<g transform="translate(0.000000,32.000000) scale(0.100000,-0.100000)"
fill="#000000" stroke="none">
<path d="M75 231 c-16 -10 -41 -30 -54 -45 l-25 -26 30 -31 c42 -44 76 -59
134 -59 58 0 92 15 134 59 l30 31 -30 31 c-16 17 -41 37 -56 45 -39 20 -127
18 -163 -5z m110 -11 c52 -20 52 -100 0 -120 -55 -21 -106 30 -85 85 8 21 24
33 57 44 1 1 13 -3 28 -9z"/>
<path d="M140 180 c-21 -21 -18 -45 6 -54 19 -7 55 29 48 48 -9 24 -33 27 -54
6z"/>
</g>
</svg>
